<svg width="32" height="32" viewBox="0 0 32 32" fill="none" xmlns="http://www.w3.org/2000/svg">
<rect width="32" height="32" rx="16" fill="white"/>
<path d="M8.67613 7.16504C8.67613 8.22405 8.85355 9.26953 9.19538 10.2404C9.53722 11.2113 10.0347 12.0829 10.652 12.8092C11.2691 13.5352 11.9917 14.0994 12.7728 14.4801C13.5531 14.8603 14.381 15.0524 15.2113 15.0524C16.0416 15.0524 16.8696 14.8603 17.6498 14.4801C18.4309 14.0994 19.1536 13.5352 19.7706 12.8092C20.388 12.0829 20.8855 11.2113 21.2273 10.2404C21.5691 9.26953 21.7466 8.22405 21.7466 7.16504H24.0001C24.0001 8.47352 23.7811 9.77237 23.3528 10.9888C22.9246 12.2051 22.2934 13.3209 21.4877 14.2687C20.6819 15.2168 19.7151 15.9805 18.6371 16.5058C17.5581 17.0316 16.3934 17.3059 15.2113 17.3059C14.0293 17.3059 12.8646 17.0316 11.7856 16.5058C10.7075 15.9805 9.7408 15.2168 8.93493 14.2687C8.12932 13.3209 7.49809 12.2051 7.06983 10.9888C6.64157 9.77237 6.42261 8.47352 6.42261 7.16504H8.67613Z" fill="#B063FF"/>
<path d="M18.8478 7.88233C20.4611 7.14142 22.2578 6.89498 24.0109 7.17429L23.6564 9.39976C22.3431 9.19051 20.9969 9.37505 19.7882 9.93014C18.5795 10.4852 17.5627 11.3859 16.8662 12.518C16.1698 13.65 15.825 14.9627 15.8753 16.2899C15.9255 17.6172 16.3685 18.8996 17.1484 19.9751C17.9282 21.0506 19.01 21.8709 20.257 22.3321C21.504 22.7933 22.8602 22.8747 24.1539 22.5658L24.6773 24.7577C22.9504 25.1699 21.1401 25.0614 19.4753 24.4456C17.8104 23.8299 16.3657 22.7346 15.324 21.298C14.2823 19.8615 13.6904 18.1483 13.6233 16.3752C13.5562 14.6021 14.0168 12.8488 14.9468 11.3371C15.8768 9.82541 17.2344 8.62324 18.8478 7.88233Z" fill="#B063FF"/>
</svg>
