<svg width="64" height="64" viewBox="0 0 64 64" fill="none" xmlns="http://www.w3.org/2000/svg">
<rect width="64" height="64" rx="30" fill="#341D74" fill-opacity="0.12"/>
<g clip-path="url(#clip0_2240_539)">
<path d="M32.5273 17.1177C32.3621 17.0408 32.182 17.001 31.9998 17.001C31.8175 17.001 31.6375 17.0408 31.4723 17.1177L12.7223 25.8677C12.5015 25.9708 12.3156 26.1361 12.1876 26.3434C12.0595 26.5507 11.9948 26.7909 12.0014 27.0345C12.0081 27.2781 12.0858 27.5144 12.2249 27.7144C12.3641 27.9144 12.5587 28.0694 12.7848 28.1602L31.5348 35.6602C31.8332 35.7798 32.1663 35.7798 32.4648 35.6602L46.9998 29.8502V44.5002C46.3367 44.5002 45.7009 44.7636 45.232 45.2325C44.7632 45.7013 44.4998 46.3372 44.4998 47.0002V52.0002H51.9998V47.0002C51.9998 46.3372 51.7364 45.7013 51.2675 45.2325C50.7987 44.7636 50.1628 44.5002 49.4998 44.5002V28.8477L51.2148 28.1602C51.4409 28.0694 51.6355 27.9144 51.7746 27.7144C51.9138 27.5144 51.9915 27.2781 51.9981 27.0345C52.0048 26.7909 51.9401 26.5507 51.812 26.3434C51.6839 26.1361 51.4981 25.9708 51.2773 25.8677L32.5273 17.1177ZM31.9998 33.1502L16.3948 26.9127L31.9998 19.6302L47.6048 26.9127L31.9998 33.1502Z" fill="#B063FF"/>
<path d="M22.4401 34.5798C22.2791 34.5191 22.1074 34.4924 21.9356 34.5011C21.7638 34.5099 21.5957 34.5541 21.4418 34.6308C21.2878 34.7075 21.1514 34.8152 21.041 34.9471C20.9306 35.079 20.8486 35.2322 20.8001 35.3973L19.5501 39.6473C19.4625 39.9456 19.4893 40.2659 19.6252 40.5456C19.7611 40.8253 19.9964 41.0442 20.2851 41.1598L31.5351 45.6598C31.8336 45.7794 32.1666 45.7794 32.4651 45.6598L43.7151 41.1598C44.0038 41.0442 44.239 40.8253 44.3749 40.5456C44.5109 40.2659 44.5376 39.9456 44.4501 39.6473L43.2001 35.3973C43.1516 35.2322 43.0696 35.079 42.9592 34.9471C42.8488 34.8152 42.7123 34.7075 42.5584 34.6308C42.4045 34.5541 42.2363 34.5099 42.0646 34.5011C41.8928 34.4924 41.7211 34.5191 41.5601 34.5798L32.0001 38.1648L22.4401 34.5798ZM22.2701 39.2623L22.8201 37.3923L31.5601 40.6698C31.8437 40.7764 32.1565 40.7764 32.4401 40.6698L41.1801 37.3923L41.7301 39.2623L32.0001 43.1498L22.2701 39.2623Z" fill="#B063FF"/>
</g>
<defs>
<clipPath id="clip0_2240_539">
<rect width="40" height="40" fill="white" transform="translate(12 12)"/>
</clipPath>
</defs>
</svg>
