<svg width="65" height="64" viewBox="0 0 65 64" fill="none" xmlns="http://www.w3.org/2000/svg">
<rect x="0.333496" width="64" height="64" rx="30" fill="#341D74" fill-opacity="0.12"/>
<path d="M31.0835 25.75C31.0835 25.4185 30.9518 25.1005 30.7174 24.8661C30.483 24.6317 30.165 24.5 29.8335 24.5C29.502 24.5 29.184 24.6317 28.9496 24.8661C28.7152 25.1005 28.5835 25.4185 28.5835 25.75V27.335L27.211 26.5425C27.0688 26.4591 26.9115 26.4047 26.7482 26.3824C26.5848 26.36 26.4187 26.3702 26.2593 26.4124C26.0999 26.4545 25.9505 26.5278 25.8195 26.6279C25.6886 26.728 25.5787 26.8531 25.4963 26.9958C25.4139 27.1386 25.3605 27.2963 25.3392 27.4597C25.318 27.6232 25.3293 27.7893 25.3725 27.9484C25.4157 28.1075 25.4899 28.2564 25.5909 28.3867C25.6919 28.517 25.8177 28.626 25.961 28.7075L27.3335 29.5L25.961 30.2925C25.8177 30.374 25.6919 30.483 25.5909 30.6133C25.4899 30.7436 25.4157 30.8925 25.3725 31.0516C25.3293 31.2107 25.318 31.3768 25.3392 31.5403C25.3605 31.7037 25.4139 31.8614 25.4963 32.0042C25.5787 32.1469 25.6886 32.272 25.8195 32.3721C25.9505 32.4722 26.0999 32.5455 26.2593 32.5876C26.4187 32.6298 26.5848 32.64 26.7482 32.6176C26.9115 32.5953 27.0688 32.5409 27.211 32.4575L28.5835 31.665V33.25C28.5835 33.5815 28.7152 33.8995 28.9496 34.1339C29.184 34.3683 29.502 34.5 29.8335 34.5C30.165 34.5 30.483 34.3683 30.7174 34.1339C30.9518 33.8995 31.0835 33.5815 31.0835 33.25V31.665L32.456 32.4575C32.5982 32.5409 32.7555 32.5953 32.9188 32.6176C33.0822 32.64 33.2483 32.6298 33.4077 32.5876C33.5671 32.5455 33.7165 32.4722 33.8475 32.3721C33.9784 32.272 34.0883 32.1469 34.1707 32.0042C34.2531 31.8614 34.3065 31.7037 34.3278 31.5403C34.349 31.3768 34.3377 31.2107 34.2945 31.0516C34.2513 30.8925 34.1771 30.7436 34.0761 30.6133C33.9751 30.483 33.8493 30.374 33.706 30.2925L32.3335 29.5L33.706 28.7075C33.8493 28.626 33.9751 28.517 34.0761 28.3867C34.1771 28.2564 34.2513 28.1075 34.2945 27.9484C34.3377 27.7893 34.349 27.6232 34.3278 27.4597C34.3065 27.2963 34.2531 27.1386 34.1707 26.9958C34.0883 26.8531 33.9784 26.728 33.8475 26.6279C33.7165 26.5278 33.5671 26.4545 33.4077 26.4124C33.2483 26.3702 33.0822 26.36 32.9188 26.3824C32.7555 26.4047 32.5982 26.4591 32.456 26.5425L31.0835 27.335V25.75ZM26.0835 37C25.752 37 25.434 37.1317 25.1996 37.3661C24.9652 37.6005 24.8335 37.9185 24.8335 38.25C24.8335 38.5815 24.9652 38.8995 25.1996 39.1339C25.434 39.3683 25.752 39.5 26.0835 39.5H38.5835C38.915 39.5 39.233 39.3683 39.4674 39.1339C39.7018 38.8995 39.8335 38.5815 39.8335 38.25C39.8335 37.9185 39.7018 37.6005 39.4674 37.3661C39.233 37.1317 38.915 37 38.5835 37H26.0835ZM26.0835 42C25.752 42 25.434 42.1317 25.1996 42.3661C24.9652 42.6005 24.8335 42.9185 24.8335 43.25C24.8335 43.5815 24.9652 43.8995 25.1996 44.1339C25.434 44.3683 25.752 44.5 26.0835 44.5H38.5835C38.915 44.5 39.233 44.3683 39.4674 44.1339C39.7018 43.8995 39.8335 43.5815 39.8335 43.25C39.8335 42.9185 39.7018 42.6005 39.4674 42.3661C39.233 42.1317 38.915 42 38.5835 42H26.0835Z" fill="#B063FF"/>
<path d="M47.3335 47V23.25L36.0835 12H22.3335C21.0074 12 19.7356 12.5268 18.798 13.4645C17.8603 14.4021 17.3335 15.6739 17.3335 17V47C17.3335 48.3261 17.8603 49.5979 18.798 50.5355C19.7356 51.4732 21.0074 52 22.3335 52H42.3335C43.6596 52 44.9313 51.4732 45.869 50.5355C46.8067 49.5979 47.3335 48.3261 47.3335 47ZM36.0835 19.5C36.0835 20.4946 36.4786 21.4484 37.1818 22.1517C37.8851 22.8549 38.8389 23.25 39.8335 23.25H44.8335V47C44.8335 47.663 44.5701 48.2989 44.1013 48.7678C43.6324 49.2366 42.9965 49.5 42.3335 49.5H22.3335C21.6705 49.5 21.0346 49.2366 20.5657 48.7678C20.0969 48.2989 19.8335 47.663 19.8335 47V17C19.8335 16.337 20.0969 15.7011 20.5657 15.2322C21.0346 14.7634 21.6705 14.5 22.3335 14.5H36.0835V19.5Z" fill="#B063FF"/>
</svg>
