<svg width="65" height="64" viewBox="0 0 65 64" fill="none" xmlns="http://www.w3.org/2000/svg">
<rect x="0.666016" width="64" height="64" rx="30" fill="#341D74" fill-opacity="0.12"/>
<g clip-path="url(#clip0_2240_604)">
<path d="M31.8085 27.6177C32.0835 26.7927 33.2485 26.7927 33.5235 27.6177L35.136 32.4602C35.491 33.5247 36.089 34.4919 36.8826 35.2851C37.6763 36.0783 38.6438 36.6758 39.7085 37.0302L44.5485 38.6427C45.3735 38.9177 45.3735 40.0827 44.5485 40.3577L39.706 41.9702C38.6415 42.3251 37.6743 42.9231 36.8811 43.7168C36.0878 44.5104 35.4904 45.478 35.136 46.5427L33.5235 51.3827C33.4642 51.5633 33.3494 51.7206 33.1954 51.8322C33.0414 51.9437 32.8562 52.0037 32.666 52.0037C32.4759 52.0037 32.2906 51.9437 32.1366 51.8322C31.9826 51.7206 31.8678 51.5633 31.8085 51.3827L30.196 46.5402C29.8414 45.4759 29.2437 44.5089 28.4505 43.7157C27.6573 42.9225 26.6903 42.3248 25.626 41.9702L20.7835 40.3577C20.6029 40.2984 20.4456 40.1835 20.334 40.0296C20.2225 39.8756 20.1625 39.6903 20.1625 39.5002C20.1625 39.31 20.2225 39.1248 20.334 38.9708C20.4456 38.8168 20.6029 38.702 20.7835 38.6427L25.626 37.0302C26.6903 36.6755 27.6573 36.0779 28.4505 35.2846C29.2437 34.4914 29.8414 33.5244 30.196 32.4602L31.8085 27.6177ZM22.151 14.8702C22.1869 14.7619 22.2559 14.6677 22.3484 14.6009C22.4408 14.5341 22.552 14.4982 22.666 14.4982C22.7801 14.4982 22.8912 14.5341 22.9837 14.6009C23.0761 14.6677 23.1452 14.7619 23.181 14.8702L24.1485 17.7752C24.581 19.0702 25.596 20.0852 26.891 20.5177L29.796 21.4852C29.9043 21.521 29.9985 21.5901 30.0653 21.6825C30.1321 21.775 30.168 21.8861 30.168 22.0002C30.168 22.1142 30.1321 22.2254 30.0653 22.3178C29.9985 22.4103 29.9043 22.4793 29.796 22.5152L26.891 23.4827C26.252 23.6948 25.6713 24.0531 25.1951 24.5293C24.719 25.0054 24.3606 25.5861 24.1485 26.2252L23.181 29.1302C23.1452 29.2384 23.0761 29.3326 22.9837 29.3994C22.8912 29.4662 22.7801 29.5021 22.666 29.5021C22.552 29.5021 22.4408 29.4662 22.3484 29.3994C22.2559 29.3326 22.1869 29.2384 22.151 29.1302L21.1835 26.2252C20.9714 25.5861 20.6131 25.0054 20.1369 24.5293C19.6608 24.0531 19.0801 23.6948 18.441 23.4827L15.536 22.5152C15.4278 22.4793 15.3336 22.4103 15.2668 22.3178C15.2 22.2254 15.1641 22.1142 15.1641 22.0002C15.1641 21.8861 15.2 21.775 15.2668 21.6825C15.3336 21.5901 15.4278 21.521 15.536 21.4852L18.441 20.5177C19.0801 20.3056 19.6608 19.9472 20.1369 19.4711C20.6131 18.9949 20.9714 18.4142 21.1835 17.7752L22.151 14.8702ZM39.8235 12.2477C39.8482 12.1765 39.8945 12.1148 39.9558 12.0711C40.0172 12.0274 40.0907 12.0039 40.166 12.0039C40.2414 12.0039 40.3148 12.0274 40.3762 12.0711C40.4376 12.1148 40.4839 12.1765 40.5085 12.2477L41.1535 14.1827C41.441 15.0477 42.1185 15.7252 42.9835 16.0127L44.9185 16.6577C44.9897 16.6823 45.0514 16.7286 45.0951 16.79C45.1388 16.8514 45.1623 16.9248 45.1623 17.0002C45.1623 17.0755 45.1388 17.149 45.0951 17.2104C45.0514 17.2717 44.9897 17.318 44.9185 17.3427L42.9835 17.9877C42.5576 18.1302 42.1706 18.3696 41.8531 18.6872C41.5355 19.0048 41.296 19.3918 41.1535 19.8177L40.5085 21.7527C40.4839 21.8238 40.4376 21.8856 40.3762 21.9293C40.3148 21.9729 40.2414 21.9964 40.166 21.9964C40.0907 21.9964 40.0172 21.9729 39.9558 21.9293C39.8945 21.8856 39.8482 21.8238 39.8235 21.7527L39.1785 19.8177C39.036 19.3918 38.7966 19.0048 38.479 18.6872C38.1614 18.3696 37.7744 18.1302 37.3485 17.9877L35.416 17.3427C35.3448 17.318 35.2831 17.2717 35.2394 17.2104C35.1957 17.149 35.1723 17.0755 35.1723 17.0002C35.1723 16.9248 35.1957 16.8514 35.2394 16.79C35.2831 16.7286 35.3448 16.6823 35.416 16.6577L37.351 16.0127C38.216 15.7252 38.8935 15.0477 39.181 14.1827L39.8235 12.2477Z" fill="#B063FF"/>
</g>
<defs>
<clipPath id="clip0_2240_604">
<rect width="40" height="40" fill="white" transform="translate(12.666 12)"/>
</clipPath>
</defs>
</svg>
