<svg width="64" height="65" viewBox="0 0 64 65" fill="none" xmlns="http://www.w3.org/2000/svg">
<rect y="0.5" width="64" height="64" rx="30" fill="#D2DEFD" fill-opacity="0.15"/>
<path d="M32 32.5C33.9891 32.5 35.8968 31.7098 37.3033 30.3033C38.7098 28.8968 39.5 26.9891 39.5 25C39.5 23.0109 38.7098 21.1032 37.3033 19.6967C35.8968 18.2902 33.9891 17.5 32 17.5C30.0109 17.5 28.1032 18.2902 26.6967 19.6967C25.2902 21.1032 24.5 23.0109 24.5 25C24.5 26.9891 25.2902 28.8968 26.6967 30.3033C28.1032 31.7098 30.0109 32.5 32 32.5ZM37 25C37 26.3261 36.4732 27.5979 35.5355 28.5355C34.5979 29.4732 33.3261 30 32 30C30.6739 30 29.4021 29.4732 28.4645 28.5355C27.5268 27.5979 27 26.3261 27 25C27 23.6739 27.5268 22.4021 28.4645 21.4645C29.4021 20.5268 30.6739 20 32 20C33.3261 20 34.5979 20.5268 35.5355 21.4645C36.4732 22.4021 37 23.6739 37 25ZM47 45C47 47.5 44.5 47.5 44.5 47.5H19.5C19.5 47.5 17 47.5 17 45C17 42.5 19.5 35 32 35C44.5 35 47 42.5 47 45ZM44.5 44.99C44.4975 44.375 44.115 42.525 42.42 40.83C40.79 39.2 37.7225 37.5 32 37.5C26.2775 37.5 23.21 39.2 21.58 40.83C19.885 42.525 19.505 44.375 19.5 44.99H44.5Z" fill="#224AE8"/>
</svg>
