<svg width="64" height="64" viewBox="0 0 64 64" fill="none" xmlns="http://www.w3.org/2000/svg">
<rect width="64" height="64" rx="30" fill="#D2DEFD" fill-opacity="0.15"/>
<path d="M14.5 20.75C14.5 19.7554 14.8951 18.8016 15.5984 18.0983C16.3016 17.3951 17.2555 17 18.25 17H25.16C27.555 17 29.56 18.4 30.9375 19.96C31.9625 21.12 33.2 22 34.5 22H45.75C46.7446 22 47.6984 22.3951 48.4017 23.0983C49.1049 23.8016 49.5 24.7554 49.5 25.75V27.35C50.925 28.0125 51.85 29.54 51.64 31.215L50.04 44.025C49.851 45.5376 49.1157 46.929 47.9725 47.9373C46.8292 48.9456 45.3569 49.5014 43.8325 49.5H20.165C18.6415 49.5002 17.1704 48.9439 16.0282 47.9357C14.886 46.9274 14.1514 45.5368 13.9625 44.025L12.3625 31.215C12.264 30.4275 12.4178 29.629 12.8019 28.9344C13.186 28.2399 13.7806 27.6851 14.5 27.35V20.75ZM17 27H47V25.75C47 25.4185 46.8683 25.1005 46.6339 24.8661C46.3995 24.6317 46.0816 24.5 45.75 24.5H34.5C32.09 24.5 30.225 22.9275 29.065 21.615C27.935 20.335 26.55 19.5 25.16 19.5H18.25C17.9185 19.5 17.6006 19.6317 17.3661 19.8661C17.1317 20.1005 17 20.4185 17 20.75V27ZM16.0825 29.5C15.9053 29.5001 15.7302 29.5378 15.5686 29.6107C15.4071 29.6836 15.2629 29.79 15.1457 29.9229C15.0284 30.0557 14.9408 30.212 14.8885 30.3813C14.8362 30.5507 14.8206 30.7292 14.8425 30.905L16.4425 43.715C16.5559 44.6222 16.9968 45.4568 17.6823 46.0617C18.3678 46.6667 19.2508 47.0004 20.165 47H43.835C44.7493 47.0004 45.6322 46.6667 46.3177 46.0617C47.0033 45.4568 47.4442 44.6222 47.5575 43.715L49.1575 30.905C49.1795 30.7292 49.1638 30.5507 49.1116 30.3813C49.0593 30.212 48.9716 30.0557 48.8544 29.9229C48.7371 29.79 48.5929 29.6836 48.4314 29.6107C48.2699 29.5378 48.0947 29.5001 47.9175 29.5H16.0825Z" fill="#224AE8"/>
</svg>
