<svg width="117" height="40" viewBox="0 0 117 40" fill="none" xmlns="http://www.w3.org/2000/svg">
<path d="M109.882 17.1032C108.607 17.1032 107.486 16.856 106.52 16.3617C105.566 15.854 104.817 15.1526 104.272 14.2574C103.739 13.3623 103.473 12.3269 103.473 11.1512C103.473 9.96213 103.739 8.92672 104.272 8.04494C104.817 7.14981 105.566 6.45508 106.52 5.96075C107.486 5.45306 108.607 5.19922 109.882 5.19922C111.158 5.19922 112.273 5.45306 113.227 5.96075C114.193 6.45508 114.942 7.14981 115.475 8.04494C116.02 8.92672 116.292 9.96213 116.292 11.1512C116.292 12.3269 116.02 13.3623 115.475 14.2574C114.942 15.1526 114.193 15.854 113.227 16.3617C112.273 16.856 111.158 17.1032 109.882 17.1032ZM109.882 15.059C110.7 15.059 111.4 14.8987 111.982 14.5781C112.576 14.2574 113.035 13.8099 113.357 13.2354C113.679 12.6475 113.84 11.9528 113.84 11.1512C113.84 10.3496 113.679 9.66153 113.357 9.08704C113.035 8.49919 112.576 8.04494 111.982 7.7243C111.4 7.40365 110.7 7.24333 109.882 7.24333C109.077 7.24333 108.378 7.40365 107.783 7.7243C107.188 8.04494 106.73 8.49919 106.408 9.08704C106.086 9.66153 105.925 10.3496 105.925 11.1512C105.925 11.9528 106.086 12.6475 106.408 13.2354C106.73 13.8099 107.188 14.2574 107.783 14.5781C108.378 14.8987 109.077 15.059 109.882 15.059Z" fill="#1A0047"/>
<path d="M80.5806 5.46445H83.07L83.7211 9.32929V16.1875H81.2316V8.96933L80.5806 5.46445ZM87.7233 5.19922C88.6807 5.19922 89.4914 5.4013 90.1552 5.80547C90.8319 6.20963 91.3425 6.79062 91.6872 7.54843C92.0447 8.29361 92.2234 9.19667 92.2234 10.2576V16.1875H89.734V10.6555C89.734 9.53137 89.4914 8.68515 89.0063 8.11679C88.5339 7.5358 87.8382 7.24531 86.919 7.24531C86.2679 7.24531 85.6998 7.40318 85.2147 7.71894C84.7424 8.02206 84.3721 8.45149 84.1041 9.00722C83.8487 9.56294 83.7211 10.2134 83.7211 10.9586L82.8402 10.4849C82.9551 9.37349 83.2296 8.42623 83.6636 7.64316C84.1104 6.86009 84.6785 6.26015 85.3679 5.84336C86.07 5.41393 86.8552 5.19922 87.7233 5.19922ZM96.2064 5.19922C97.1639 5.19922 97.981 5.4013 98.6576 5.80547C99.3342 6.20963 99.8448 6.79062 100.19 7.54843C100.547 8.29361 100.726 9.19667 100.726 10.2576V16.1875H98.2363V10.6555C98.2363 9.53137 97.9937 8.68515 97.5086 8.11679C97.0363 7.5358 96.3405 7.24531 95.4213 7.24531C94.7702 7.24531 94.2021 7.40318 93.717 7.71894C93.2447 8.02206 92.8745 8.45149 92.6064 9.00722C92.351 9.56294 92.2234 10.2134 92.2234 10.9586L91.3425 10.4849C91.4574 9.37349 91.7319 8.42623 92.1659 7.64316C92.6128 6.86009 93.1808 6.26015 93.8702 5.84336C94.5724 5.41393 95.3511 5.19922 96.2064 5.19922Z" fill="#1A0047"/>
<path d="M78.7492 13.3757C78.7492 14.1372 78.546 14.7985 78.1397 15.3597C77.7334 15.9208 77.1175 16.355 76.2922 16.6623C75.4668 16.9562 74.432 17.1032 73.1876 17.1032C71.9052 17.1032 70.7941 16.9362 69.8545 16.6022C68.9149 16.2548 68.1848 15.7738 67.6642 15.1592C67.1563 14.5313 66.8833 13.8099 66.8452 12.9949H69.3593C69.4355 13.4224 69.6387 13.8032 69.9688 14.1372C70.3116 14.4578 70.7561 14.705 71.302 14.8787C71.8607 15.0524 72.4956 15.1392 73.2067 15.1392C74.2352 15.1392 75.0097 15.0123 75.5303 14.7584C76.0509 14.4912 76.3112 14.0904 76.3112 13.556C76.3112 13.1953 76.1335 12.9214 75.7779 12.7344C75.4351 12.5473 74.7812 12.407 73.8162 12.3135L71.702 12.1131C70.5592 12.0062 69.6577 11.7925 68.9974 11.4718C68.3372 11.1378 67.8674 10.737 67.588 10.2694C67.3087 9.78845 67.169 9.28076 67.169 8.74635C67.169 7.97146 67.3976 7.32349 67.8547 6.80244C68.3118 6.2814 68.9467 5.88727 69.7593 5.62007C70.5719 5.3395 71.5179 5.19922 72.5972 5.19922C73.7146 5.19922 74.7113 5.36622 75.5875 5.70023C76.4636 6.02087 77.162 6.47512 77.6826 7.06297C78.2032 7.63746 78.4952 8.30547 78.5587 9.067H76.0446C75.9938 8.75971 75.8414 8.46579 75.5875 8.18522C75.3462 7.8913 74.9716 7.65082 74.4637 7.46377C73.9685 7.26337 73.3019 7.16317 72.4639 7.16317C71.575 7.16317 70.8767 7.28341 70.3688 7.52389C69.8736 7.76438 69.626 8.11842 69.626 8.58603C69.626 8.87995 69.7783 9.1338 70.0831 9.34756C70.3878 9.54797 70.9529 9.68825 71.7782 9.76841L74.5018 10.0289C75.5938 10.1358 76.4446 10.3429 77.054 10.6502C77.6762 10.9441 78.1143 11.3249 78.3682 11.7925C78.6222 12.2601 78.7492 12.7878 78.7492 13.3757Z" fill="#1A0047"/>
<path d="M60.4179 17.1032C59.1806 17.1032 58.0809 16.856 57.1185 16.3617C56.1562 15.854 55.4001 15.1526 54.8502 14.2574C54.3003 13.3623 54.0254 12.3202 54.0254 11.1311C54.0254 9.95545 54.2816 8.92672 54.794 8.04494C55.3189 7.14981 56.0375 6.45508 56.9498 5.96075C57.8746 5.45306 58.9307 5.19922 60.118 5.19922C61.3052 5.19922 62.33 5.48646 63.1924 6.06095C64.0672 6.62208 64.7421 7.41701 65.217 8.44575C65.6919 9.47448 65.9293 10.6836 65.9293 12.073H55.9375V10.0891H64.7108L63.4923 10.8305C63.4548 10.0824 63.2861 9.44108 62.9862 8.90668C62.6987 8.37227 62.305 7.96478 61.8051 7.68422C61.3177 7.39029 60.7366 7.24333 60.0617 7.24333C59.3494 7.24333 58.7245 7.39697 58.1871 7.70426C57.6622 8.01154 57.2498 8.44575 56.9498 9.00688C56.6499 9.55465 56.4999 10.2093 56.4999 10.9708C56.4999 11.8125 56.6749 12.5406 57.0248 13.1552C57.3872 13.7698 57.8934 14.2441 58.5433 14.5781C59.2056 14.8987 59.9867 15.059 60.8866 15.059C61.6989 15.059 62.53 14.9254 63.3798 14.6582C64.2297 14.3777 64.9795 13.9902 65.6294 13.4959V15.3797C64.9795 15.9141 64.1859 16.3349 63.2486 16.6422C62.3238 16.9495 61.3802 17.1032 60.4179 17.1032Z" fill="#1A0047"/>
<path d="M47.2457 2.72824H49.8174V16.1876H47.2457V2.72824ZM41.2061 1.53662H55.8571V3.80264H41.2061V1.53662Z" fill="#1A0047"/>
<path d="M81.4961 21.6816H84.0497V36.3326H81.4961V21.6816ZM88.4695 25.2968C89.5172 25.2968 90.4077 25.4998 91.141 25.9057C91.8744 26.3116 92.431 26.8951 92.8107 27.6562C93.2036 28.4046 93.4 29.3116 93.4 30.3771V36.3326H90.8464V30.7767C90.8464 29.6477 90.5714 28.7978 90.0214 28.227C89.4844 27.6435 88.6921 27.3518 87.6445 27.3518C86.9242 27.3518 86.2891 27.5103 85.7391 27.8275C85.2022 28.1319 84.7831 28.5632 84.4819 29.1213C84.1938 29.6794 84.0497 30.3327 84.0497 31.0811L83.1461 30.6054C83.264 29.4892 83.5652 28.5378 84.0497 27.7513C84.5343 26.9649 85.1563 26.3624 85.9159 25.9438C86.6754 25.5125 87.5266 25.2968 88.4695 25.2968Z" fill="#1A0047"/>
<path d="M79.6648 32.4986C79.5348 33.4338 79.177 34.2622 78.5917 34.9836C78.0063 35.6917 77.2583 36.2462 76.3477 36.647C75.4372 37.0478 74.4225 37.2482 73.3038 37.2482C72.029 37.2482 70.9038 37.001 69.9282 36.5067C68.9656 35.999 68.2111 35.2976 67.6647 34.4025C67.1184 33.5073 66.8452 32.4719 66.8452 31.2962C66.8452 30.1205 67.1184 29.0851 67.6647 28.19C68.2111 27.2948 68.9656 26.6001 69.9282 26.1058C70.9038 25.5981 72.029 25.3442 73.3038 25.3442C74.4225 25.3442 75.4372 25.5446 76.3477 25.9454C77.2583 26.3463 78.0063 26.9074 78.5917 27.6288C79.177 28.3369 79.5348 29.1653 79.6648 30.1138H77.1087C76.9266 29.2588 76.4908 28.5908 75.8014 28.1098C75.112 27.6288 74.2794 27.3883 73.3038 27.3883C72.5233 27.3883 71.8404 27.5487 71.255 27.8693C70.6696 28.1766 70.2144 28.6242 69.8891 29.212C69.5769 29.7865 69.4208 30.4812 69.4208 31.2962C69.4208 32.0978 69.5769 32.7926 69.8891 33.3804C70.2144 33.9682 70.6696 34.4225 71.255 34.7431C71.8404 35.0504 72.5233 35.2041 73.3038 35.2041C74.2924 35.2041 75.1315 34.9569 75.8209 34.4626C76.5103 33.9683 76.9396 33.3136 77.1087 32.4986H79.6648Z" fill="#1A0047"/>
<path d="M60.4179 37.2482C59.1806 37.2482 58.0809 37.001 57.1185 36.5067C56.1562 35.999 55.4001 35.2976 54.8502 34.4025C54.3003 33.5073 54.0254 32.4652 54.0254 31.2762C54.0254 30.1005 54.2816 29.0717 54.794 28.19C55.3189 27.2948 56.0375 26.6001 56.9498 26.1058C57.8746 25.5981 58.9307 25.3442 60.118 25.3442C61.3052 25.3442 62.33 25.6315 63.1924 26.206C64.0672 26.7671 64.7421 27.562 65.217 28.5908C65.6919 29.6195 65.9293 30.8286 65.9293 32.2181H55.9375V30.2341H64.7108L63.4923 30.9756C63.4548 30.2274 63.2861 29.5861 62.9862 29.0517C62.6987 28.5173 62.305 28.1098 61.8051 27.8292C61.3177 27.5353 60.7366 27.3883 60.0617 27.3883C59.3494 27.3883 58.7245 27.542 58.1871 27.8493C57.6622 28.1566 57.2498 28.5908 56.9498 29.1519C56.6499 29.6997 56.4999 30.3543 56.4999 31.1158C56.4999 31.9575 56.6749 32.6857 57.0248 33.3002C57.3872 33.9148 57.8934 34.3891 58.5433 34.7231C59.2056 35.0437 59.9867 35.2041 60.8866 35.2041C61.6989 35.2041 62.53 35.0705 63.3798 34.8033C64.2297 34.5227 64.9795 34.1353 65.6294 33.6409V35.5247C64.9795 36.0591 64.1859 36.48 63.2486 36.7873C62.3238 37.0945 61.3802 37.2482 60.4179 37.2482Z" fill="#1A0047"/>
<path d="M47.2457 22.8733H49.8174V36.3326H47.2457V22.8733ZM41.2061 21.6816H55.8571V23.9477H41.2061V21.6816Z" fill="#1A0047"/>
<path d="M4.46104 1.53662C4.46104 3.73601 4.81227 5.90729 5.48896 7.92365C6.16565 9.94004 7.15046 11.7502 8.37252 13.2586C9.59409 14.7663 11.0246 15.9382 12.5709 16.7287C14.1154 17.5183 15.7544 17.9173 17.3981 17.9173C19.0417 17.9173 20.6807 17.5183 22.2253 16.7287C23.7715 15.9382 25.2021 14.7663 26.4236 13.2586C27.6457 11.7502 28.6305 9.94004 29.3072 7.92365C29.9839 5.90728 30.3351 3.73601 30.3351 1.53662H34.7961C34.7961 4.25412 34.3627 6.95161 33.5149 9.47785C32.6671 12.004 31.4175 14.3213 29.8228 16.2897C28.2275 18.2587 26.3137 19.8448 24.1796 20.9358C22.0437 22.0278 19.7381 22.5974 17.3981 22.5974C15.0581 22.5974 12.7524 22.0278 10.6165 20.9358C8.4824 19.8448 6.56865 18.2587 4.97337 16.2897C3.3786 14.3213 2.12901 12.004 1.28124 9.47785C0.433447 6.95161 0 4.25412 0 1.53662H4.46104Z" fill="#B063FF"/>
<path d="M24.539 2.65968C27.7252 1.19641 31.2738 0.70969 34.7361 1.26132L34.0359 5.65657C31.4422 5.24331 28.7835 5.60776 26.3964 6.70404C24.0092 7.80033 22.001 9.57909 20.6255 11.8149C19.2501 14.0507 18.5692 16.6432 18.6684 19.2645C18.7676 21.8858 19.6425 24.4186 21.1827 26.5426C22.7229 28.6666 24.8594 30.2868 27.3222 31.1976C29.785 32.1085 32.4634 32.2691 35.0185 31.6591L36.0521 35.988C32.6416 36.8022 29.0664 36.5878 25.7783 35.3717C22.4903 34.1557 19.6371 31.9925 17.5797 29.1553C15.5224 26.3182 14.3533 22.9348 14.2208 19.433C14.0882 15.9311 14.998 12.4683 16.8347 9.48273C18.6714 6.49721 21.3527 4.12296 24.539 2.65968Z" fill="#B063FF"/>
</svg>
